Coordinates
version=1
nRows=10
nColumns=34
inDegrees=yes

Units are S.I. units (second, meters, Newtons, ...)
If the header above contains a line with 'inDegrees', this indicates whether rotational values are in degrees (yes) or radians (no).

endheader
time	pelvis_tilt	pelvis_list	pelvis_rotation	pelvis_tx	pelvis_ty	pelvis_tz	hip_flexion_r	hip_adduction_r	hip_rotation_r	knee_angle_r	ankle_angle_r	subtalar_angle_r	mtp_angle_r	hip_flexion_l	hip_adduction_l	hip_rotation_l	knee_angle_l	ankle_angle_l	subtalar_angle_l	mtp_angle_l	lumbar_extension	lumbar_bending	lumbar_rotation	arm_flex_r	arm_add_r	arm_rot_r	elbow_flex_r	pro_sup_r	arm_flex_l	arm_add_l	arm_rot_l	elbow_flex_l	pro_sup_l
      2.95000000	     -1.76266479	     -0.83477831	     -2.32709257	     -0.93638887	      0.99248518	     -0.04256514	     -8.18579396	      5.41372825	      2.74310988	      0.00000000	     11.54572373	      2.39117505	      0.00000000	     23.62201761	      0.70121696	     -5.06749199	      6.85960779	      1.52860788	      4.36058859	      0.00000000	     -5.11387811	      4.12854530	      3.05396120	      0.45941069	     -6.87865860	      0.05626183	     29.45797909	     87.59620093	     -2.55138045	     -4.74193606	     10.86052478	     21.76063819	     78.87578214
      2.96666670	     -1.53792708	     -1.12111848	     -2.50091971	     -0.92373118	      0.98703177	     -0.04203789	     -9.27656464	      5.64225115	      3.12103013	      0.00000000	     13.08309644	      2.28938840	      0.00000000	     23.56849810	      0.38344145	     -4.11297173	      3.87997072	      1.33919703	      4.38810425	      0.00000000	     -5.62512527	      4.23151461	      3.13141923	      0.69479365	     -6.84922209	      0.37461982	     29.53565770	     87.55938772	     -2.14570171	     -4.72106394	     10.79160284	     21.68311921	     78.92252233
      2.98333330	     -1.28007028	     -1.27938946	     -2.57771544	     -0.90891973	      0.98112719	     -0.04189793	    -10.47355313	      5.74118176	      3.39065123	      0.00000000	     14.20358022	      2.08270942	      0.00000000	     23.48385774	      0.17000569	     -3.03470636	      1.98033134	      1.17981846	      3.64213230	      0.00000000	     -6.18484909	      4.13704174	      3.07676288	      0.89834042	     -6.75818525	      0.77284853	     29.55578128	     87.49184089	     -1.76972911	     -4.80524819	     10.77240563	     21.62686025	     78.99805283
      3.00000000	     -1.06825920	     -1.28760818	     -2.52738861	     -0.89339038	      0.97807988	     -0.04268095	    -11.68653340	      5.67636015	      3.56020857	      0.00000000	     14.76991592	      1.83100130	      0.00000000	     23.44055369	      0.17305286	     -1.77159943	      1.35896822	      0.89802727	      1.94543127	      0.00000000	     -6.56702736	      3.88354664	      2.85165336	      1.06670644	     -6.60796338	      1.21769842	     29.39354324	     87.36704800	     -1.49272667	     -4.95771696	     10.81940619	     21.60576918	     79.10293274
      3.01666670	     -0.91626408	     -1.05491148	     -2.36346023	     -0.87807004	      0.97801203	     -0.04411715	    -12.89134393	      5.36005900	      3.57490129	      0.00000000	     14.98774777	      1.63961274	      0.00000000	     23.44136961	      0.54988477	     -0.63324307	      1.91715340	      0.47772092	     -0.21966615	      0.00000000	     -6.72969550	      3.33816505	      2.49142300	      1.18394058	     -6.37004819	      1.59699531	     29.05031825	     87.19766034	     -1.30011234	     -5.19387338	     10.91022766	     21.59201246	     79.20897825
      3.03333330	     -0.79180189	     -0.57965215	     -2.17540394	     -0.86289479	      0.97964950	     -0.04591965	    -14.10291257	      4.77251525	      3.37485985	      0.00000000	     14.88120365	      1.68156701	      0.00000000	     23.40148165	      1.31257919	      0.13675079	      3.33672346	     -0.25963158	     -2.76569971	      0.00000000	     -6.75461471	      2.49103663	      2.06753396	      1.27162965	     -6.06232444	      1.93006140	     28.59327125	     86.98171465	     -1.10981098	     -5.51873591	     11.04978216	     21.58795924	     79.32234385
      3.05000000	     -0.87922975	      0.08065877	     -2.19526558	     -0.84760856	      0.98066595	     -0.04736370	    -15.08311448	      3.95338587	      3.21699652	      0.00000000	     14.60769419	      1.79735066	      0.00000000	     23.55386082	      2.23039484	     -0.23586272	      5.35230594	     -0.52350905	     -3.72828418	      0.00000000	     -6.50390124	      1.44038132	      1.91587464	      1.10929818	     -5.71613735	      2.03570256	     28.47963679	     86.94435930	     -0.99379925	     -5.89319042	     11.04430852	     21.56327432	     79.33865146
      3.06666670	     -0.89426870	      0.72791498	     -2.31805521	     -0.83225991	      0.98103146	     -0.04896791	    -16.11674165	      3.09084411	      2.68645729	      0.00000000	     14.73495944	      2.77090514	      0.00000000	     23.42207505	      3.26781195	      0.50262988	      7.09507619	     -1.92930891	     -6.69491444	      0.00000000	     -6.28015065	      0.39372443	      1.69793280	      1.19584842	     -5.40627285	      2.23632821	     27.71930729	     86.71181509	     -0.95854260	     -6.26877101	     11.32937434	     21.66914079	     79.48666378
      3.08333330	     -1.09231905	      1.28304416	     -2.71480756	     -0.81613173	      0.98010060	     -0.04988987	    -16.88685145	      2.27651993	      2.62463493	      0.00000000	     14.79594907	      3.06884347	      0.00000000	     23.54587667	      4.03854312	      0.05853643	      8.79678051	     -2.11431851	     -7.14384971	      0.00000000	     -5.92418677	     -0.50335167	      1.70092658	      1.07237186	     -5.17883193	      2.31204079	     27.62377319	     86.66958737	     -0.97824228	     -6.58631842	     11.34795282	     21.65987626	     79.50951474
      3.10000000	     -1.21966540	      1.83153558	     -3.10934869	     -0.79792403	      0.97766787	     -0.05079347	    -17.84624137	      1.42165107	      2.06252829	      0.00000000	     15.31628311	      4.64412802	      0.00000000	     23.35468802	      4.81318423	     -0.01672133	      9.86949906	     -2.37169711	     -7.48001319	      0.00000000	     -5.51558348	     -1.42691546	      1.88986868	      0.93122692	     -4.94995509	      2.42077458	     26.94842973	     86.43564523	     -1.07963752	     -6.93726604	     11.62153617	     21.87577352	     79.65926288
